<svg width="31" height="36" viewBox="0 0 31 36" fill="none" xmlns="http://www.w3.org/2000/svg">
<path d="M29.4666 14.0245C26.3458 7.63034 19.3613 4.39649 12.674 5.57244L14.4573 2.2651C14.9031 1.53013 14.6059 0.574675 13.8629 0.207193C13.1198 -0.233786 12.1539 0.0601991 11.7824 0.795164L8.14152 7.48335C8.14152 7.48335 7.32418 8.80629 8.58734 9.39426L15.3489 12.9956C15.5718 13.1426 15.8691 13.2161 16.092 13.2161C16.6121 13.2161 17.2065 12.9221 17.4294 12.4076C17.8752 11.6727 17.578 10.7172 16.835 10.3497L13.3427 8.4388C18.6183 7.55685 24.1167 10.2027 26.5687 15.2005C29.5409 21.3007 26.9402 28.6503 20.7731 31.5167C17.8009 32.9131 14.4573 33.1336 11.3366 32.0312C8.21582 30.9287 5.68951 28.7238 4.27775 25.784C2.86598 22.8441 2.64307 19.5368 3.75762 16.4499C4.05484 15.6415 3.60902 14.7595 2.79168 14.4655C2.04865 14.3185 1.15701 14.7595 0.859795 15.568C-0.477664 19.4633 -0.254754 23.5791 1.52852 27.2539C3.3118 30.9287 6.43254 33.7216 10.3706 35.118C12.0796 35.706 13.7886 36 15.4975 36C17.8009 36 20.1043 35.4855 22.1848 34.4566C29.9124 30.7817 33.1817 21.5947 29.4666 14.0245Z" fill="black"/>
</svg>
